{"title":"Fall Out Boy Ft. Foxes - Just One Yesterday [Music Video] 720p [","uid":10098838,"size":76969328,"categoryP":"video","categoryS":"music_videos","magnet":"?xt=urn:btih:2a0f9c799542db19f4d2d8e08f7d2b56154c3a61&amp;dn=Fall+Out+Boy+Ft.+Foxes+-+Just+One+Yesterday+%5BMusic+Video%5D+720p+%5B&amp;tr=udp%3A%2F%2Ftracker.openbittorrent.com%3A80&amp;tr=udp%3A%2F%2Fopen.demonii.com%3A1337&amp;tr=udp%3A%2F%2Ftracker.coppersurfer.tk%3A6969&amp;tr=udp%3A%2F%2Fexodus.desync.com%3A6969","seeders":1,"leechers":14,"uploader":"Sbyky","files":1,"time":1399351049,"description":"\n\nGeneral\nComplete name                            : Fall Out Boy Ft. Foxes - Just One Yesterday [Music Video] 720p [Sbyky].mp4\nFormat                                   : MPEG-4\nFormat profile                           : Base Media\nCodec ID                                 : isom\nFile size                                : 73.4 MiB\nDuration                                 : 4mn 31s\nOverall bit rate mode                    : Variable\nOverall bit rate                         : 2 272 Kbps\nEncoded date                             : UTC 2013-12-03 03:56:03\nTagged date                              : UTC 2013-12-03 03:56:03\n\nVideo\nID                                       : 1\nFormat                                   : AVC\nFormat/Info                              : Advanced Video Codec\nFormat profile                           : &lt;a class=&quot;__cf_email__&quot; href=&quot;/cdn-cgi/l/email-protection&quot; data-cfemail=&quot;aae7cbc3c4eae699849b&quot;&gt;[email&amp;#160;protected]&lt;/a&gt;&lt;script cf-hash='f9e31' type=&quot;text/javascript&quot;&gt;\n/* &lt;![CDATA[ */!function(){try{var t=&quot;currentScript&quot;in document?document.currentScript:function(){for(var t=document.getElementsByTagName(&quot;script&quot;),e=t.length;e--;)if(t[e].getAttribute(&quot;cf-hash&quot;))return t[e]}();if(t&amp;&amp;t.previousSibling){var e,r,n,i,c=t.previousSibling,a=c.getAttribute(&quot;data-cfemail&quot;);if(a){for(e=&quot;&quot;,r=parseInt(a.substr(0,2),16),n=2;a.length-n;n+=2)i=parseInt(a.substr(n,2),16)^r,e+=String.fromCharCode(i);e=document.createTextNode(e),c.parentNode.replaceChild(e,c)}}}catch(u){}}();/* ]]&gt; */&lt;/script&gt;\nFormat settings, CABAC                   : Yes\nFormat settings, ReFrames                : 3 frames\nCodec ID                                 : avc1\nCodec ID/Info                            : Advanced Video Coding\nDuration                                 : 4mn 30s\nDuration_LastFrame                       : -41ms\nBit rate                                 : 2 144 Kbps\nWidth                                    : 1 280 pixels\nHeight                                   : 720 pixels\nDisplay aspect ratio                     : 16:9\nFrame rate mode                          : Constant\nFrame rate                               : 23.976 fps\nColor space                              : YUV\nChroma subsampling                       : 4:2:0\nBit depth                                : 8 bits\nScan type                                : Progressive\nBits/(Pixel*Frame)                       : 0.097\nStream size                              : 69.2 MiB (94%)\nEncoded date                             : UTC 2013-12-03 03:56:03\nTagged date                              : UTC 2013-12-03 03:56:03\n\nAudio\nID                                       : 2\nFormat                                   : AAC\nFormat/Info                              : Advanced Audio Codec\nFormat profile                           : LC\nCodec ID                                 : 40\nDuration                                 : 4mn 31s\nBit rate mode                            : Variable\nBit rate                                 : 126 Kbps\nChannel(s)                               : 2 channels\nChannel positions                        : Front: L R\nSampling rate                            : 44.1 KHz\nCompression mode                         : Lossy\nStream size                              : 4.06 MiB (6%)\nEncoded date                             : UTC 2013-12-03 03:53:16\nTagged date                              : UTC 2013-12-03 03:53:16\n\nShared By Sbyky\n","torrent":{"xt":"urn:btih:2a0f9c799542db19f4d2d8e08f7d2b56154c3a61","amp;dn":"Fall+Out+Boy+Ft.+Foxes+-+Just+One+Yesterday+%5BMusic+Video%5D+720p+%5B","amp;tr":["udp%3A%2F%2Ftracker.openbittorrent.com%3A80","udp%3A%2F%2Fopen.demonii.com%3A1337","udp%3A%2F%2Ftracker.coppersurfer.tk%3A6969","udp%3A%2F%2Fexodus.desync.com%3A6969"],"infoHash":"2a0f9c799542db19f4d2d8e08f7d2b56154c3a61","infoHashBuffer":{"type":"Buffer","data":[42,15,156,121,149,66,219,25,244,210,216,224,143,125,43,86,21,76,58,97]},"announce":[],"urlList":[]}}